<svg xmlns="http://www.w3.org/2000/svg" version="1.1" xmlns:xlink="http://www.w3.org/1999/xlink" xmlns:svgjs="http://svgjs.com/svgjs" width="1000" height="1000"><rect width="1000" height="1000" rx="150" ry="150" fill="#ffffff"></rect><g transform="matrix(1.1505990306203167,0,0,1.1505990306203167,99.99922673972242,246.6350850271403)"><svg xmlns="http://www.w3.org/2000/svg" version="1.1" xmlns:xlink="http://www.w3.org/1999/xlink" xmlns:svgjs="http://svgjs.com/svgjs" width="695.29" height="440.4"><svg id="Layer_2" xmlns="http://www.w3.org/2000/svg" viewBox="0 0 695.29 440.4"><defs><style>.cls-1{fill:#2b2d75;}</style></defs><g id="Layer_1-2"><path class="cls-1" d="m687.67,381.49c-8.78.11-16.7,2.78-23.91,7.75-2.89,1.99-5.86,3.96-9.3,4.85-8.01,2.07-15.8,1.75-23.09-2.65-2.81-1.7-5.5-3.59-8.38-5.16-5.57-3.04-11.54-4.46-17.87-4.68-7.67-.27-14.98.98-21.72,4.78-3.19,1.8-6.24,3.83-9.39,5.7-3,1.78-6.29,2.74-9.75,3.05-7.05.63-13.66-.51-19.63-4.63-4.09-2.82-8.28-5.55-13.11-6.93-12.84-3.7-25.12-2.66-36.56,4.72-3.14,2.02-6.15,4.34-9.76,5.45-8.87,2.73-17.39,2.16-25.35-3.02-2.75-1.79-5.49-3.59-8.43-5.08-5.24-2.64-10.8-3.84-16.65-4.05-6.3-.22-12.4.6-18.24,3.06-3.47,1.46-6.6,3.51-9.73,5.55-3.25,2.12-6.64,3.96-10.53,4.57-7.71,1.2-15.04.42-21.71-4.1-3.57-2.42-7.2-4.74-11.24-6.35-4.05-1.61-8.25-2.43-12.59-2.68-5.26-.3-10.43.14-15.51,1.6-4.83,1.4-9.06,3.99-13.22,6.7-3.37,2.2-6.86,4.19-10.91,4.82-7.71,1.21-15.04.42-21.71-4.08-3.83-2.58-7.72-5.07-12.1-6.68-3.9-1.44-7.93-2.2-12.08-2.36-.88-.03-1.75-.14-2.63-.11-.66.03-1.25.13-1.82.28-7.41.21-14.57,2.34-21.44,6.77-3.14,2.02-6.15,4.34-9.76,5.45-8.87,2.73-17.39,2.16-25.35-3.02-2.75-1.79-5.49-3.59-8.43-5.08-5.24-2.64-10.8-3.84-16.65-4.05-6.3-.22-12.4.6-18.24,3.06-3.47,1.46-6.6,3.51-9.73,5.55-3.25,2.12-6.64,3.96-10.53,4.57-7.71,1.2-15.04.42-21.71-4.1-3.57-2.42-7.2-4.74-11.24-6.35-4.05-1.61-8.25-2.43-12.59-2.68-5.26-.3-10.43.14-15.51,1.6-4.83,1.4-9.06,3.99-13.22,6.7-3.37,2.2-6.86,4.19-10.91,4.82-7.71,1.21-15.04.42-21.71-4.08-3.83-2.58-7.72-5.07-12.1-6.68-3.9-1.44-7.93-2.2-12.08-2.36-.88-.03-1.75-.14-2.63-.11-3.49.15-5.73,2.01-6.94,5.21v3.66c.79,1.97,1.92,3.63,3.94,4.55,1.19.54,2.44.7,3.69.67,6.01-.1,11.26,2.02,16.15,5.32,3.17,2.14,6.42,4.13,9.98,5.56,4.29,1.73,8.76,2.6,13.38,2.75,5.8.19,11.51-.28,17.01-2.32,4.36-1.62,8.27-4.09,12.11-6.66,4.88-3.28,10.26-4.69,16.11-4.71,6.31-.01,11.86,2.04,16.99,5.6,3.42,2.37,7.02,4.46,10.98,5.86,3.85,1.36,7.8,2.08,11.87,2.23,6.32.23,12.5-.35,18.4-2.81,3.86-1.61,7.34-3.89,10.83-6.15,8.64-5.59,17.77-6.11,27.23-2.46,2.96,1.15,5.49,3.13,8.17,4.82,12.31,7.77,25.32,8.59,38.83,3.8,4.01-1.42,7.5-3.9,11.05-6.23,7.98-5.24,16.53-5.82,25.44-3.07,3.65,1.13,6.69,3.48,9.86,5.51,11.79,7.53,24.35,8.4,37.44,4.32,4.6-1.44,8.53-4.22,12.53-6.82,7.92-5.15,16.4-5.72,25.23-3.05,3.13.95,5.81,2.86,8.52,4.64,4.56,2.99,9.33,5.55,14.75,6.59,12.21,2.35,23.67.71,34.09-6.5,3.42-2.37,6.98-4.52,11.11-5.51,2.36-.56,4.76-.64,7.15-.76.65-.03,1.24-.14,1.8-.28,3.18.23,6.4.98,9.67,2.24,2.96,1.15,5.49,3.13,8.17,4.82,12.31,7.77,25.32,8.59,38.83,3.8,4.01-1.42,7.5-3.9,11.05-6.23,7.98-5.24,16.53-5.82,25.44-3.07,3.65,1.13,6.69,3.48,9.86,5.51,11.79,7.53,24.35,8.4,37.44,4.32,4.6-1.44,8.53-4.22,12.53-6.82,7.92-5.15,16.4-5.72,25.23-3.05,3.13.95,5.81,2.86,8.52,4.64,4.56,2.99,9.33,5.55,14.75,6.59,12.21,2.35,23.67.71,34.09-6.5,3.42-2.37,6.98-4.52,11.11-5.51,2.36-.57,4.76-.64,7.15-.76,3.25-.16,5.42-1.78,6.63-4.77.06-.14.14-.27.2-.41v-3.66c-.11-.24-.23-.48-.34-.72-1.33-3.02-3.99-4.57-7.28-4.52Z"></path><path class="cls-1" d="m694.95,354.92c-1.33-3.02-3.99-4.57-7.28-4.52-8.78.11-16.7,2.78-23.91,7.75-2.89,1.99-5.86,3.96-9.3,4.85-8.01,2.07-15.8,1.75-23.09-2.65-2.81-1.7-5.5-3.59-8.38-5.16-5.57-3.04-11.54-4.46-17.87-4.68-7.67-.27-14.98.98-21.72,4.78-.5.28-.98.57-1.47.86-.16-.14-.31-.37-.45-.71-1.31-3.3-2.74-6.55-4.04-9.84-6.14-15.54-10.96-31.48-14.61-47.78-3.51-15.69-5.93-31.55-7.4-47.56-1.04-11.4-1.55-22.83-1.74-34.27-.14-7.9.09-15.79.42-23.68.19-4.61.42-9.22.74-13.82.6-8.64,1.42-17.25,2.47-25.85,1.06-8.75,2.34-17.46,3.77-26.15.17-1.06.43-1.04,1.23-.49,5.9,4.1,11.21,8.86,15.74,14.42,15.63,19.18,20.5,41.13,16.55,65.3-1.29,7.89-4.22,15.19-7.8,22.27-.84,1.66-1.46,3.45-2.69,4.9-2.27,2.68-2.26,6.47,0,9.15,2.19,2.6,6.1,3.26,9.04,1.46,1.24-.76,2.53-1.41,3.81-2.09,4.37-2.32,8.38-5.16,12-8.54,7.16-6.67,12.69-14.52,16.64-23.46,7.01-15.88,8.5-32.21,4.06-49.07-4.55-17.29-13.94-31.2-28.49-41.6-.12-.09-.38-.13-.22-.42,4,1.06,7.88,2.43,11.59,4.23,15.83,7.68,27.79,19.35,36.08,34.87,3.13,5.85,4.85,12.17,6.79,18.43.32,1.02.65,2.03.68,3.12.1,3.5,2.57,6.21,6.12,6.79,3.13.51,6.49-1.49,7.58-4.64.98-2.84,1.9-5.72,2.68-8.62,2.51-9.34,2.58-18.78.9-28.25-2.54-14.28-8.55-26.9-18.38-37.64-6.45-7.06-14.18-12.38-22.75-16.5-10.13-4.86-20.83-7.03-32.07-6.58-2.73.11-5.44.39-8.48.72.57-.31.86-.47,1.16-.63,4.02-2.06,8.17-3.79,12.51-5.04,10.82-3.11,21.81-3.96,32.96-2.28,9.41,1.42,18.33,4.29,26.48,9.32,2.81,1.74,5.78,3.19,8.34,5.39,2.25,1.93,5,2.04,7.61.6,2.55-1.41,3.78-3.67,3.69-6.62-.05-1.64-.97-2.94-1.53-4.39-3.77-9.66-9.64-17.84-17.52-24.53-16.83-14.28-36.14-20.37-58.13-16.91-17.34,2.72-31.77,10.81-43.23,24.13-.21.24-.34.7-.75.55-.31-.11-.23-.53-.29-.82-2.43-12-7.77-22.48-16.16-31.44-6.32-6.76-13.56-12.18-22.1-15.76-10.14-4.24-20.71-5.89-31.68-4.85-8.71.83-16.91,3.24-24.41,7.84-1.33.82-2.6,1.74-3.97,2.5-3.01,1.66-4.53,4.92-3.68,8.1.88,3.31,3.76,5.55,7.24,5.24,2.26-.2,4.49-.05,6.73.04,6.32.27,12.5,1.24,18.51,3.3,13.14,4.51,23.99,12.21,32.55,23.14.85,1.09,1.72,2.19,2.29,3.5-.48-.24-.9-.55-1.33-.85-14.57-10.4-30.79-13.86-48.33-11.16-13.71,2.12-25.39,8.47-35.2,18.2-7.74,7.68-13.26,16.7-15.81,27.4-.17.72-.3,1.46-.55,2.16-5.33-.19-10.67-.35-16.01-.46-3.01-.06-5.32,1.31-6.58,4.09-1.18,2.61-.88,5.15.92,7.41,1.51,1.9,3.61,2.58,5.96,2.64,6.02.15,12.04.25,18.06.47,4.06.15,6.95-1.36,8.38-5.27v-.51c.26-.21.51-.44.75-.69,2.11-2.3,4.53-4.19,6.89-6.16,9.99-8.34,21.62-12.87,34.43-14.49,7.86-.99,15.69-.64,23.4,1.32.25.06.51.14.97.27-2.41.38-4.61.66-6.79,1.08-10.68,2.07-20.11,6.7-28.47,13.67-9.7,8.08-16.62,17.99-20.52,30-2.38,7.32-3.51,14.85-3.23,22.54.36,9.88,2.69,19.24,7.88,27.77.28.45.47.96.69,1.44,1.39,2.96,4.69,4.6,7.9,3.91,3.21-.69,5.53-3.55,5.58-6.81.12-9.57,1.94-18.78,5.93-27.53,5.5-12.07,13.68-21.89,24.74-29.22,8.71-5.77,18.35-9.06,28.7-10.37,4.22-.53,8.45-.52,12.68-.4,1.14.03,1.24.23.64,1.19-11.41,18.27-18.84,38.19-24.46,58.87-4.25,15.63-7.24,31.52-9.37,47.57-1.12,8.47-2.01,16.96-2.62,25.49-.52,7.15-.9,14.31-1.15,21.47-.33,9.65-.33,19.31-.09,28.96.32,12.73,1.16,25.44,2.59,38.11.55,4.81,1.13,9.62,1.83,14.41.04.3.04.55-.03.76-4.02,1.11-7.95,2.85-11.79,5.33-3.14,2.02-6.15,4.34-9.76,5.45-8.87,2.73-17.39,2.16-25.35-3.02-2.75-1.79-5.49-3.59-8.43-5.08-5.24-2.64-10.8-3.84-16.65-4.05-6.3-.22-12.4.6-18.24,3.06-1.89.79-3.67,1.77-5.42,2.82-.62.36-1.23.74-1.83,1.13-.83.53-1.65,1.06-2.48,1.6-3.25,2.12-6.64,3.96-10.53,4.57-7.71,1.2-15.04.42-21.71-4.1-3.57-2.42-7.2-4.74-11.24-6.35-4.05-1.61-8.25-2.43-12.59-2.68-5.26-.3-10.43.14-15.51,1.6-4.83,1.4-9.06,3.99-13.22,6.7-.37.24-.74.48-1.11.71-.49.3-.98.6-1.47.9-2.59,1.51-5.3,2.74-8.33,3.22-7.71,1.21-15.04.42-21.71-4.08-3.83-2.58-7.72-5.07-12.1-6.68-3.9-1.44-7.93-2.2-12.08-2.36-.88-.03-1.75-.14-2.63-.11-.25.01-.48.05-.72.08-7.8.02-15.33,2.15-22.54,6.79-3.14,2.02-6.15,4.34-9.76,5.45-8.87,2.73-17.39,2.16-25.35-3.02-2.75-1.79-5.49-3.59-8.43-5.08-5.24-2.64-10.8-3.84-16.65-4.05-6.3-.22-12.4.6-18.24,3.06-3.47,1.46-6.6,3.51-9.73,5.55-3.25,2.12-6.64,3.96-10.53,4.57-7.71,1.2-15.04.42-21.71-4.1-3.57-2.42-7.2-4.74-11.24-6.35-4.05-1.61-8.25-2.43-12.59-2.68-5.26-.3-10.43.14-15.51,1.6-4.83,1.4-9.06,3.99-13.22,6.7-3.37,2.2-6.86,4.19-10.91,4.82-7.71,1.21-15.04.42-21.71-4.08-3.83-2.58-7.72-5.07-12.1-6.68-3.9-1.44-7.93-2.2-12.08-2.36-.88-.03-1.75-.14-2.63-.11-3.49.15-5.73,2.01-6.94,5.21v3.66c.79,1.97,1.92,3.63,3.94,4.55,1.19.54,2.44.7,3.69.67,6.01-.1,11.26,2.02,16.15,5.32,3.17,2.14,6.42,4.13,9.98,5.56,4.29,1.73,8.76,2.6,13.38,2.75,5.8.19,11.51-.28,17.01-2.32,4.36-1.62,8.27-4.09,12.11-6.66,4.88-3.28,10.26-4.69,16.11-4.71,6.31-.01,11.86,2.04,16.99,5.6,3.42,2.37,7.02,4.46,10.98,5.86,3.85,1.36,7.8,2.08,11.87,2.23,6.32.23,12.5-.35,18.4-2.81,3.86-1.61,7.34-3.89,10.83-6.15,8.64-5.59,17.77-6.11,27.23-2.46,2.96,1.15,5.49,3.13,8.17,4.82,12.31,7.77,25.32,8.59,38.83,3.8,4.01-1.42,7.5-3.9,11.05-6.23,7.98-5.24,16.53-5.82,25.44-3.07,3.65,1.13,6.69,3.48,9.86,5.51,9.9,6.32,20.35,7.94,31.2,5.87,1.67-.28,3.32-.67,4.95-1.19.43-.12.86-.24,1.29-.37,4.6-1.44,8.53-4.22,12.53-6.82,7.92-5.15,16.4-5.72,25.23-3.05,3.13.95,5.81,2.86,8.52,4.64,4.56,2.99,9.33,5.55,14.75,6.59,12.21,2.35,23.67.71,34.09-6.5,2.12-1.47,4.3-2.86,6.63-3.93.04-.02.07-.03.11-.05.41-.19.82-.36,1.24-.53.1-.04.21-.08.31-.12.91-.35,1.85-.65,2.83-.88,2.36-.57,4.76-.64,7.15-.76.44-.02.85-.07,1.25-.15,3.36.18,6.76.95,10.21,2.28,2.96,1.15,5.49,3.13,8.17,4.82,12.31,7.77,25.32,8.59,38.83,3.8,4.01-1.42,7.5-3.9,11.05-6.23,7.98-5.24,16.53-5.82,25.44-3.07,3.65,1.13,6.69,3.48,9.86,5.51,11.79,7.53,24.35,8.4,37.44,4.32,4.6-1.44,8.53-4.22,12.53-6.82,7.92-5.15,16.4-5.72,25.23-3.05,3.13.95,5.81,2.86,8.52,4.64,4.56,2.99,9.33,5.55,14.75,6.59,12.21,2.35,23.67.71,34.09-6.5,3.42-2.37,6.98-4.52,11.11-5.51,2.36-.57,4.76-.64,7.15-.76,3.25-.16,5.42-1.78,6.63-4.77.06-.14.14-.27.2-.41v-3.66c-.11-.24-.23-.48-.34-.72Zm-87.41-142.14c3.61-15.94,3.31-31.8-.96-47.56-4.29-15.79-12.53-29.29-24.2-40.88,32.05,12.39,47.49,56.45,25.16,88.44Zm52.13-64.83c-17.95-29-43.4-45.5-77.98-46.51,34.22-13.92,73.34,9.58,77.98,46.51Zm-57.43-93.34c19.36-5.57,36.82-1.54,52.48,10.88-15.41-4.67-30.98-5.43-46.71-2.12-15.77,3.32-29.41,10.76-41.4,21.44,7.71-14.97,19.25-25.5,35.62-30.2Zm-120.68,66.1c-9.65,8.56-17.02,18.79-22.08,30.68,1.35-29.76,28.17-51.45,55.86-48.2-12.81,3.18-24.06,8.9-33.78,17.52Zm-27.12-40.83c3.71-6.07,20.65-13.6,31.71-14.08,18.17-.78,32.01,6.45,41.32,17.28-23.87-12.9-48.24-13.42-73.03-3.2Zm44.41-55.06c28.61-.86,52.65,24.4,51.3,52.54-8.72-25.88-26.13-42.86-51.3-52.54Zm26.07,172.64c1.03-4.46,1.99-8.94,3.11-13.37,3.32-13.19,7.46-26.11,12.83-38.62,1.34-3.11,2.79-6.18,4.19-9.27.09.02.18.04.27.06-.42,3.09-.85,6.18-1.26,9.28-.87,6.58-1.58,13.17-2.21,19.78-.76,7.97-1.28,15.96-1.71,23.96-.11,2.06-.19,4.11-.25,6.17-.02.66-.27,1.06-.9,1.28-.39.14-.77.35-1.1.61-3.82,2.94-8.09,2.34-12.38,1.57-.88-.16-.73-.82-.59-1.44Zm-7.44,52.87c.24-2.96.46-5.93.76-8.88.78-7.77,1.71-15.53,2.91-23.25.24-1.54.5-3.09.73-4.63.1-.69.35-.99,1.14-.81,5.22,1.25,10.44,1.08,15.62-.26.86-.22.98.16.99.86.04,2.71.12,5.41.16,8.12.15,9.65.68,19.27,1.56,28.88.05.58-.04.93-.58,1.32-3.13,2.25-6.67,2.85-10.33,2.72-4.43.26-8.41-1.15-12.36-2.75-.68-.28-.63-.79-.59-1.32Zm-.92,55.76c-.25-8.58-.56-17.15-.42-25.73.07-4.34.27-8.69.36-13.03.02-.99.31-1.14,1.22-.84,8.1,2.66,16.24,2.83,24.39.22,1.09-.35,1.03.34,1.11.98.73,5.4,1.54,10.79,2.48,16.16,1.39,7.96,3.07,15.87,4.96,23.73.06.25.2.5-.08.99-.55-1.38-1.39-1.08-2.37-.77-3,.96-6.12,1.27-9.24,1.46-7.2.45-14.33-.02-21.33-1.84-.74-.19-1.06-.53-1.08-1.33Zm47.69,57.93c-4.38.39-8.59.1-12.59-1.17-2.42-.9-4.76-2.17-7.03-3.7-2.99-2.01-6.05-3.88-9.35-5.3-1.22-.54-2.47-1.02-3.76-1.39-.53-.15-1.05-.28-1.58-.42-.12-.03-.24-.07-.36-.1-2.84-.72-5.66-1.19-8.44-1.41-.23-.18-.36-.46-.42-.87-.88-6.38-1.7-12.77-2.34-19.18-.24-2.39-.48-4.78-.67-7.17-.12-1.47-.05-1.52,1.42-1.22,4.88.98,9.81,1.5,14.77,1.43,6.56-.09,13.12-.47,19.41-2.62.87-.3.95.23,1.12.8,1.89,6.44,3.95,12.83,6.2,19.15,2.57,7.23,5.41,14.34,8.51,21.36.16.36.23.62.2.82-1.65.51-3.35.84-5.1.99Z"></path><path class="cls-1" d="m688.58,412.52c-8.94-.29-16.98,2.35-24.35,7.33-2.75,1.86-5.5,3.8-8.7,4.79-8.91,2.76-17.45,2.15-25.43-3.06-3.83-2.5-7.66-5.02-12-6.63-3.97-1.47-8.07-2.24-12.3-2.4-6.47-.25-12.8.37-18.83,2.97-3.31,1.43-6.35,3.33-9.36,5.28-2.99,1.94-6.03,3.82-9.55,4.56-8.1,1.71-15.85,1.05-22.95-3.66-2.22-1.47-4.49-2.89-6.8-4.23-4.87-2.81-10.14-4.42-15.74-4.83-8.48-.62-16.71.28-24.26,4.58-2.58,1.47-5.12,3.04-7.6,4.69-5.87,3.89-12.36,4.73-19.18,4.08-4.57-.43-8.58-2.31-12.35-4.79-3.86-2.54-7.72-5.15-12.18-6.5-13.04-3.95-25.54-3.01-37.22,4.5-2.44,1.57-4.83,3.22-7.44,4.5-5.12,2.52-10.55,2.76-16.1,2.28-5.46-.48-9.95-3.2-14.37-6.13-4.72-3.13-9.72-5.63-15.35-6.59-12.14-2.08-23.46-.2-33.67,7.03-2.49,1.76-5.08,3.46-8.02,4.36-8.91,2.74-17.45,2.16-25.44-3.05-3.9-2.54-7.79-5.1-12.21-6.71-5.02-1.83-10.2-2.6-15.51-2.3-.48.03-.92.12-1.35.24-6.13.23-12.07,1.54-17.64,4.71-2.58,1.47-5.12,3.04-7.6,4.69-5.87,3.89-12.36,4.73-19.18,4.08-4.57-.43-8.58-2.31-12.35-4.79-3.86-2.54-7.72-5.15-12.18-6.5-13.04-3.95-25.54-3.01-37.22,4.5-2.44,1.57-4.83,3.22-7.44,4.5-5.12,2.52-10.55,2.76-16.1,2.28-5.46-.48-9.95-3.2-14.37-6.13-4.72-3.13-9.72-5.63-15.35-6.59-12.14-2.08-23.46-.2-33.67,7.03-2.49,1.76-5.08,3.46-8.02,4.36-8.91,2.74-17.45,2.16-25.44-3.05-3.9-2.54-7.79-5.1-12.21-6.71-5.02-1.83-10.2-2.6-15.51-2.3-2.47.14-4.25,1.56-5.4,3.73-.23.44-.42.9-.63,1.35v3.66c.94,2.5,2.52,4.38,5.23,4.96,1.18.26,2.42.27,3.64.31,3.72.12,7.23.99,10.54,2.71,1.97,1.02,3.83,2.21,5.68,3.42,4.07,2.66,8.32,4.93,13.07,6.18,2.07.55,4.19.78,6.28,1.19h10.08c.22-.05.44-.13.66-.16,4.83-.53,9.38-1.94,13.68-4.21,2.97-1.57,5.73-3.49,8.58-5.25,7.09-4.37,14.71-4.78,22.6-2.98,3.48.8,6.44,2.72,9.37,4.66,4.61,3.04,9.37,5.74,14.82,6.95,1.78.39,3.59.67,5.39,1h10.08c.3-.06.59-.14.89-.17,4.35-.53,8.51-1.7,12.44-3.67,3.01-1.51,5.81-3.35,8.62-5.18,7.95-5.15,16.45-5.73,25.31-3.01,2.87.88,5.34,2.59,7.83,4.21,4.1,2.67,8.31,5.1,13.08,6.44,2.28.64,4.62.94,6.94,1.38h10.08c.3-.06.59-.14.89-.17,4.39-.53,8.58-1.73,12.54-3.73,2.94-1.48,5.68-3.28,8.42-5.07,7.97-5.21,16.51-5.8,25.41-3.06,3.12.96,5.78,2.89,8.5,4.65,4.05,2.62,8.25,4.91,12.96,6.15,2.1.55,4.26.82,6.39,1.23h10.08c.3-.06.59-.14.89-.18,4.43-.53,8.65-1.77,12.64-3.78,2.97-1.5,5.75-3.31,8.51-5.14,7.1-4.69,14.84-5.36,22.93-3.64,3.87.82,7.15,2.98,10.41,5.12,4.16,2.73,8.48,5.11,13.34,6.4,2.11.56,4.26.8,6.39,1.22h10.08c.3-.06.59-.14.89-.18,3.3-.41,6.52-1.18,9.62-2.42,3.56-1.42,6.82-3.39,9.98-5.53,4.84-3.27,10.01-5.46,15.98-5.43.98,0,1.99-.03,2.97-.3,2.6.18,5.24.7,7.91,1.52,2.87.88,5.34,2.59,7.83,4.21,4.1,2.67,8.31,5.1,13.08,6.44,2.28.64,4.62.94,6.94,1.38h10.08c.3-.06.59-.14.89-.17,4.39-.53,8.58-1.73,12.54-3.73,2.94-1.48,5.68-3.28,8.42-5.07,7.97-5.21,16.51-5.8,25.41-3.06,3.12.96,5.78,2.89,8.5,4.65,4.05,2.62,8.25,4.91,12.96,6.15,2.1.55,4.26.82,6.39,1.23h10.08c.3-.06.59-.14.89-.18,4.43-.53,8.65-1.77,12.64-3.78,2.97-1.5,5.75-3.31,8.51-5.14,7.1-4.69,14.84-5.36,22.93-3.64,3.87.82,7.15,2.98,10.41,5.12,4.16,2.73,8.48,5.11,13.34,6.4,2.11.56,4.26.8,6.39,1.22h10.08c.3-.06.59-.14.89-.18,3.3-.41,6.52-1.18,9.62-2.42,3.56-1.42,6.82-3.39,9.98-5.53,4.84-3.27,10.01-5.46,15.98-5.43,1.12,0,2.28-.02,3.39-.41,2.34-.84,3.7-2.58,4.57-4.81v-3.66c-.18-.38-.34-.77-.53-1.14-1.29-2.53-3.31-3.9-6.19-3.99Z"></path><path class="cls-1" d="m629.96,329.16c-.59,3.7,2.05,7.36,5.77,7.92.86.13,1.75.17,2.62.17,16.18,0,32.35-.03,48.53.03,4.02.02,6.98-1.34,8.42-5.27v-3.66c-.68-1.55-1.43-3.02-2.94-3.99-1.4-.9-2.94-1.25-4.57-1.26-16.75,0-33.5-.02-50.25,0-4.15,0-6.99,2.34-7.59,6.05Z"></path><path class="cls-1" d="m671.78,295.64c-4.21.04-7.05,2.52-7.49,6.38-.42,3.65,2.25,7.07,5.9,7.61,1.48.22,2.97.14,4.45.15,4.08.01,8.16-.07,12.24.02,4.02.1,6.97-1.34,8.42-5.27v-3.66c-.65-1.47-1.35-2.9-2.75-3.86-1.41-.97-2.97-1.38-4.64-1.38-5.38-.02-10.75-.05-16.13,0Z"></path><path class="cls-1" d="m643.72,309.73c3.9.04,7.02-3.11,7.01-7.08,0-3.89-3.12-7-6.98-6.99-3.81.01-7,3.21-7.02,7.02-.02,3.79,3.18,7.01,6.99,7.05Z"></path><path class="cls-1" d="m328.62,32.75c2.28,1.69,4.79,1.95,7.33.7,2.64-1.3,3.93-3.57,3.92-6.47-.02-6.33-.19-12.65-.17-18.98.01-3.93-1.56-6.66-5.33-7.99h-3.66c-.34.16-.69.32-1.03.5-2.59,1.35-4.07,3.44-4.06,6.39.03,6.86.12,13.72.23,20.58.04,2.18,1.01,3.98,2.77,5.28Z"></path><path class="cls-1" d="m314.13,240.78c0,11.18.09,22.36-.05,33.54-.05,3.91,2.77,7.54,7.44,7.54,13.47,0,26.94,0,40.41,0,1.6,0,3.09-.41,4.42-1.35,2.33-1.63,3.04-4,3.04-6.69.01-4.81,0-9.62,0-14.43,0-6.07-.03-12.14,0-18.2.03-5.08-3.68-7.9-7.8-7.77-6.63.21-13.28.06-19.92.06-6.75,0-13.51,0-20.26,0-4.45,0-7.28,2.85-7.29,7.3Zm15.44,6.6c4.08.05,8.16.02,12.24.02,4.08,0,8.16.03,12.24-.02.99-.01,1.33.3,1.32,1.31-.04,5.91-.04,11.82,0,17.73,0,1.01-.35,1.31-1.33,1.31-8.16-.03-16.32-.03-24.48,0-1.04,0-1.4-.34-1.4-1.39.04-5.87.04-11.74,0-17.61,0-1.08.39-1.35,1.41-1.34Z"></path><path class="cls-1" d="m301.35,192.49c14.56-.39,26.91-12.91,26.78-27.66-.16-16.3-13.76-28-28.46-27.58-14.58.42-27.2,12.87-26.8,28.4.38,14.59,12.87,27.25,28.48,26.84Zm-.79-41.14c7.56.03,13.47,6,13.44,13.58-.02,7.57-5.97,13.48-13.55,13.47-7.59-.01-13.49-5.93-13.49-13.52,0-7.64,5.95-13.56,13.6-13.52Z"></path><path class="cls-1" d="m293.31,62.93c.27.19.52.04.76-.03,6.46-1.78,12.47-.85,17.97,3.03.62.43,1.12.43,1.78.14,7.27-3.13,14.84-4.3,22.7-3.29,11.9,1.51,21.66,7,29.01,16.41,8.89,11.39,11.41,24.3,8.25,38.35-.19.85-.09,1.39.61,1.98,3.15,2.66,6.24,5.38,9.36,8.07,1.2,1.04,1.26,1.01,1.79-.45,3.37-9.41,4.45-19.05,2.94-28.95-2.19-14.48-8.78-26.6-19.95-36.04-12.4-10.49-26.81-15.01-43.02-13.42-11.97,1.18-22.53,5.76-31.72,13.51-.22.19-.54.32-.5.7Z"></path><path class="cls-1" d="m235.05,219.91c11.56.02,23.12,0,34.69.01.89,0,1.74-.15,2.56-.51,3.09-1.33,4.78-4.54,4.15-7.85-.63-3.27-3.43-5.55-6.88-5.56-5.69-.01-11.37,0-17.06,0-5.8,0-11.6-.01-17.4,0-3.91.01-6.92,3.1-6.9,7.04.02,3.78,3.04,6.86,6.85,6.86Z"></path><path class="cls-1" d="m295.38,35.53c1.67,3.79,5.74,5.46,9.39,3.85,3.6-1.59,5.13-5.69,3.5-9.42-1.35-3.11-2.73-6.21-4.1-9.31-1.42-3.2-2.79-6.43-4.31-9.59-1.43-2.98-4.68-4.45-7.83-3.71-3.21.75-5.37,3.49-5.37,6.94-.07.98.23,2.03.68,3.06,2.69,6.06,5.37,12.13,8.04,18.19Z"></path><path class="cls-1" d="m402.77,142.58c6.24,2.78,12.49,5.52,18.79,8.15,4.64,1.94,9.7-1.47,9.72-6.88-.13-2.56-1.5-4.82-4.27-6.04-6.17-2.73-12.37-5.41-18.58-8.05-3.77-1.6-7.72-.05-9.31,3.55-1.58,3.57-.05,7.62,3.66,9.27Z"></path><path class="cls-1" d="m362.46,40.84c2.87,0,5.31-1.53,6.45-4.3,2.58-6.24,5.13-12.49,7.59-18.78,1.41-3.61-.41-7.57-3.93-8.98-3.6-1.44-7.56.23-9.11,3.85-.41.95-.77,1.91-1.16,2.86-2.1,5.2-4.22,10.39-6.28,15.61-1.9,4.81,1.38,9.73,6.44,9.74Z"></path><path class="cls-1" d="m385.2,57.9c2.72,1.03,5.27.47,7.31-1.52,4.84-4.7,9.64-9.45,14.33-14.31,2.05-2.12,2.48-4.79,1.26-7.54-1.22-2.75-3.42-4.08-6.4-4.17-2.01-.08-3.67.72-5.05,2.08-4.69,4.64-9.37,9.3-14.01,13.99-1.56,1.57-2.27,3.54-1.96,5.75.38,2.76,1.9,4.73,4.51,5.72Z"></path><path class="cls-1" d="m397.83,78.44c.65,3.35,3.48,5.69,7.04,5.69.88.06,1.83-.19,2.76-.56,5.96-2.34,11.93-4.67,17.89-7.02,3.92-1.55,5.73-5.49,4.27-9.2-1.47-3.72-5.47-5.39-9.37-3.89-1.64.63-3.27,1.28-4.9,1.92-4.44,1.74-8.88,3.45-13.31,5.24-3.24,1.31-5.02,4.56-4.38,7.83Z"></path><path class="cls-1" d="m169,186.89c-3.04,2.62-3.43,6.95-.87,10.04,2.42,2.93,6.89,3.26,9.96.69,1.49-1.25,2.94-2.55,4.42-3.82.24-.21.48-.62.85-.4.28.16.14.56.16.86.01.19,0,.38,0,.57,0,17.82,0,35.64,0,53.46-.05.27-.07.57-.07.89.04,23.81.03,47.63.03,71.44,0,1.01,0,1.51-.24,1.77-.03.02-.06.04-.09.06-.04.03-.07.05-.12.07-.03.01-.06.02-.09.03-.29.09-.74.1-1.44.1-2.91,0-5.82,0-8.73,0-.4,0-.81,0-1.21-.02-.4-.01-.78,0-1.16.02-1.49,0-2.98,0-4.47,0-.76,0-1.53.03-2.28.17-2.8.52-4.71,2.16-5.55,4.86-.84,2.72-.13,5.13,1.89,7.12,1.7,1.68,3.86,2,6.13,2,87.81,0,175.63,0,263.44-.01.49,0,.98-.02,1.48-.06.49.05.99.07,1.51.07,16.18-.06,32.35-.02,48.53-.03.87,0,1.76-.04,2.62-.17,3.72-.57,6.36-4.22,5.77-7.92-.59-3.71-3.44-6.04-7.59-6.05-16.75-.03-33.5-.01-50.25,0-.22,0-.43.02-.64.04-.49-.04-1.01-.06-1.54-.04-3.51.09-7.02-.01-10.53.04-1.1.02-1.57-.36-1.44-1.45.03-.23,0-.46,0-.69,0-41.9,0-83.81,0-125.71,0-.19-.01-.38,0-.57.02-.3-.12-.7.16-.86.37-.22.61.2.85.4,1.48,1.26,2.92,2.57,4.42,3.82,3.08,2.57,7.54,2.24,9.96-.69,2.56-3.1,2.17-7.43-.87-10.04-14.16-12.2-28.32-24.41-42.48-36.62-9.68-8.35-19.35-16.71-29.03-25.06-9.19-7.92-18.39-15.84-27.58-23.76-9.39-8.09-18.78-16.2-28.18-24.28-2.72-2.34-6.36-2.35-9.13-.1-.47.39-.93.79-1.4,1.19-7.84,6.8-15.68,13.6-23.52,20.4-6.6,5.73-12.15,10.66-18.76,16.37-9.19,7.92-2.24,2.27-11.43,10.19-9.68,8.35-19.35,16.71-29.03,25.06-14.16,12.21-28.32,24.42-42.48,36.62Zm105.91,135.8c-14.84-.05-29.68-.03-44.52-.03q-1.83,0-1.84-1.84c0-23.88,0-47.76,0-71.64q0-1.79,1.73-1.79c14.8,0,29.6,0,44.4,0q1.65,0,1.65,1.63c0,12.02,0,24.03,0,36.05,0,12.05-.02,24.11.02,36.16,0,1.14-.26,1.46-1.45,1.46Zm128.4-1.8q0,1.76-1.79,1.77c-32.13,0-64.26,0-96.39,0-4.43,0-8.85-.03-13.28.02-1.08.01-1.49-.32-1.47-1.44.05-3.43.02-6.87.02-10.3,0-1.56.03-1.6,1.61-1.6,18.32,0,36.63,0,54.95,0,18.16,0,36.33,0,54.49,0q1.85,0,1.86,1.82c0,3.24,0,6.49,0,9.73Zm-144.62-193.24h0c13.52-11.72,27.04-23.43,40.54-35.17.69-.6,1.12-.61,1.81,0,3.46,3.05,6.98,6.05,10.47,9.06,10.9,9.39,21.79,18.78,32.69,28.17,9.65,8.32,19.29,16.65,28.95,24.97,9.65,8.32,19.3,16.64,28.97,24.94.85.73,1.22,1.51,1.22,2.65-.03,37.02-.02,74.04-.02,111.05q0,1.83-1.85,1.83c-36.41,0-72.81,0-109.22,0q-1.84,0-1.85-1.82c0-17.1,0-34.19,0-51.29,0-.46.01-.92-.01-1.37-.25-4.26-2.96-7.2-6.79-7.21-20.8-.02-41.6-.02-62.4,0-3.32,0-6.17,2.54-6.63,5.83-.12.87-.16,1.75-.16,2.62,0,26.33,0,52.66,0,79,0,1.71-.01,1.72-1.73,1.72-4.12,0-8.24,0-12.36,0-1.94,0-2.47.12-2.61-.61v-1.15c0-3.24,0-6.49,0-9.73v-17.81c0-19.43,0-38.86-.01-58.29.02-.15.02-.3,0-.43,0-17.45,0-34.89-.01-52.34,0-1.15.37-1.92,1.22-2.65,9.67-8.3,19.32-16.62,28.97-24.94,9.65-8.32,21.18-18.73,30.83-27.05Z"></path><path class="cls-1" d="m426.88,296.56c-1.4.96-2.09,2.39-2.74,3.86v3.66c1.44,3.93,4.4,5.36,8.42,5.27,4.08-.1,8.16-.01,12.24-.02,1.49,0,2.97.07,4.45-.15,3.65-.54,6.32-3.97,5.9-7.61-.44-3.86-3.29-6.34-7.49-6.38-5.38-.05-10.75-.02-16.13,0-1.67,0-3.23.41-4.64,1.38Z"></path><path class="cls-1" d="m482.7,302.23c-.02-3.81-3.21-7.01-7.02-7.02-3.86-.01-6.97,3.1-6.98,6.99,0,3.97,3.11,7.12,7.01,7.08,3.82-.04,7.01-3.25,6.99-7.05Z"></path><path class="cls-1" d="m10.02,107.08c11.88-.15,23.76-.05,35.63-.05,52.55,0,105.11,0,157.66,0,2.09,0,4.16-.11,6.2-.5,10.1-1.9,17.88-7.04,22.72-16.29,1.89-3.61,3.14-7.42,4.06-11.37v-8.4c-.64-3.64-1.51-7.24-3.55-10.37-7.28-11.17-17.48-17.17-30.97-17.04-9.54.09-17.22,4.03-23.05,11.55-5.21,6.73-7.06,14.54-7.34,22.89-.16,4.89,5.26,7.37,8.43,6.58,3.3-.83,5.27-3.31,5.65-7.18.31-3.23.9-6.41,2.15-9.43,2.25-5.43,5.98-9.14,11.98-10.07,5.98-.93,11.3.72,16.07,4.36,4.61,3.52,6.75,8.08,6.43,13.94-.52,9.66-7.82,16.89-17.48,17.05-2.8.04-5.6-.01-8.4-.01-62.23,0-124.46,0-186.69,0-.56,0-1.12,0-1.68.02-3.65.15-5.67,1.62-6.94,5.04-.1.26-.21.52-.32.77v3.12c1.7,4.3,5.04,5.45,9.4,5.4Z"></path><path class="cls-1" d="m129.86,172.85c-3.94-.47-7.24-2.21-9.66-5.42-2.05-2.73-3.4-5.79-4.05-9.13-.41-2.11-.62-4.27-1-6.39-.65-3.64-3.98-6.21-7.48-5.87-3.68.36-6.3,3.27-6.32,7.06-.03,7.96,2.31,15.2,6.77,21.75,3.67,5.38,8.65,9.01,14.93,10.85,2.04.6,4.14.84,6.23,1.18h8.16c3.81-.76,7.58-1.71,11.03-3.55,10.89-5.81,17.51-14.56,18-27.18.27-6.97-2.1-13.23-6.01-18.99-6.07-8.96-14.38-13.88-25.25-13.92-29.75-.09-59.5-.04-89.26-.05-1.09,0-2.15.17-3.18.51-2.71.89-4.64,3.28-4.76,5.88-.15,3.33,1.45,6.05,4.23,7.27,1.48.64,3.02.68,4.58.68,28.79-.01,57.59-.01,86.38-.02.68,0,1.36,0,2.04.01,6.11.22,10.8,2.83,13.87,8.19,1.3,2.28,2.13,4.72,2.7,7.28,1.01,4.58-.06,8.7-3.02,12.22-4.92,5.86-11.23,8.55-18.91,7.64Z"></path><path class="cls-1" d="m14.97,76.54c29.52,0,59.04.04,88.56-.03,5.72-.01,11.16-1.49,16.14-4.4,7.56-4.43,11.95-11.24,14.46-19.44,1.21-3.95,2-7.97,1.27-12.05-2.09-11.75-8.89-19.92-19.51-25.1-2.99-1.46-6.21-2.02-9.43-2.64h-8.88c-.15.05-.3.13-.45.14-8.06.65-14.23,4.69-19.15,10.84-5.64,7.04-7.63,15.26-7.56,24.1,0,1.16.52,2.16,1.26,3.05,2.01,2.41,4.89,3.23,7.88,2.23,2.88-.96,4.69-3.41,4.9-6.6.27-4.07,1.08-8,3.06-11.62,2.19-4.02,5.29-6.94,9.92-7.81,3.41-.65,6.87-.67,10.21.42,5.87,1.9,10.6,5.34,12.71,11.31,2.47,7-.2,13.06-4.61,18.4-3.13,3.79-7.59,4.85-12.3,4.9-2.84.03-5.67-.12-8.51-.16-3.16-.04-6.31.13-9.47.14-23.2.04-46.4.03-69.6.01-1.5,0-2.94.18-4.35.69-4.05,1.49-5.81,6.43-3.58,10.13,1.6,2.67,4.14,3.49,7.06,3.49Z"></path></g></svg></svg></g></svg>